<svg xmlns="http://www.w3.org/2000/svg" width="1800" height="1330" viewBox="0 0 1800 1330"><rect width="1800" height="1330" fill="#FFFFFF"/><text x="60" y="62" font-family="Alibaba PuHuiTi 2.0, Noto Sans CJK SC, sans-serif" font-size="36" font-weight="700" fill="#1F2933">鸿蒙记忆卡片 App · 核心流程</text><text x="60" y="92" font-family="Alibaba PuHuiTi 2.0, Noto Sans CJK SC, sans-serif" font-size="17" fill="#6B7785">首次引导 / 复习主循环 / 制卡与 AI 草稿 / 回归模式</text><line x1="60" y1="108" x2="360" y2="108" stroke="#1F6FEB" stroke-width="4" stroke-linecap="round"/><rect x="60" y="116" width="6" height="22" rx="3" fill="#9A5206"/><text x="76" y="132" font-family="Alibaba PuHuiTi 2.0, Noto Sans CJK SC, sans-serif" font-size="19" font-weight="700" fill="#9A5206">A · 首次启动引导 —— 目标：≤120 秒完成首张卡复习，全程零术语</text><rect x="75" y="176" width="310" height="128" rx="12" fill="#FEF3E2" stroke="#D97706" stroke-width="2"/><path d="M87 176 H373 a12 12 0 0 1 12 12 V182 H75 V188 a12 12 0 0 1 12 -12 Z" fill="#9A5206"/><text x="230" y="210" text-anchor="middle" font-family="Alibaba PuHuiTi 2.0, Noto Sans CJK SC, sans-serif" font-size="19" font-weight="700" fill="#9A5206">第 1 屏 · 选个起点</text><text x="230" y="236" text-anchor="middle" font-family="Alibaba PuHuiTi 2.0, Noto Sans CJK SC, sans-serif" font-size="14" fill="#6B7785">提供 3~4 个精选牌组</text><text x="230" y="259" text-anchor="middle" font-family="Alibaba PuHuiTi 2.0, Noto Sans CJK SC, sans-serif" font-size="14" fill="#6B7785">或「我自己有内容」</text><text x="230" y="282" text-anchor="middle" font-family="Alibaba PuHuiTi 2.0, Noto Sans CJK SC, sans-serif" font-size="14" fill="#6B7785">→ 解决「我该记什么」</text><rect x="455" y="176" width="310" height="128" rx="12" fill="#F0EBFF" stroke="#7C4DFF" stroke-width="2"/><path d="M467 176 H753 a12 12 0 0 1 12 12 V182 H455 V188 a12 12 0 0 1 12 -12 Z" fill="#5A2FD6"/><text x="610" y="210" text-anchor="middle" font-family="Alibaba PuHuiTi 2.0, Noto Sans CJK SC, sans-serif" font-size="19" font-weight="700" fill="#5A2FD6">第 2 屏 · 丢进内容</text><text x="610" y="236" text-anchor="middle" font-family="Alibaba PuHuiTi 2.0, Noto Sans CJK SC, sans-serif" font-size="14" fill="#6B7785">拍照 / 粘贴 / 导入文档</text><text x="610" y="259" text-anchor="middle" font-family="Alibaba PuHuiTi 2.0, Noto Sans CJK SC, sans-serif" font-size="14" fill="#6B7785">3 秒生成卡片草稿</text><text x="610" y="282" text-anchor="middle" font-family="Alibaba PuHuiTi 2.0, Noto Sans CJK SC, sans-serif" font-size="14" fill="#6B7785">→ 第一分钟就有卡可背</text><rect x="835" y="176" width="310" height="128" rx="12" fill="#E3F5F2" stroke="#0E9384" stroke-width="2"/><path d="M847 176 H1133 a12 12 0 0 1 12 12 V182 H835 V188 a12 12 0 0 1 12 -12 Z" fill="#076B60"/><text x="990" y="210" text-anchor="middle" font-family="Alibaba PuHuiTi 2.0, Noto Sans CJK SC, sans-serif" font-size="19" font-weight="700" fill="#076B60">第 3 屏 · 定个时间</text><text x="990" y="236" text-anchor="middle" font-family="Alibaba PuHuiTi 2.0, Noto Sans CJK SC, sans-serif" font-size="14" fill="#6B7785">5 / 15 / 30 分钟三档</text><text x="990" y="259" text-anchor="middle" font-family="Alibaba PuHuiTi 2.0, Noto Sans CJK SC, sans-serif" font-size="14" fill="#6B7785">系统推算每日上限</text><text x="990" y="282" text-anchor="middle" font-family="Alibaba PuHuiTi 2.0, Noto Sans CJK SC, sans-serif" font-size="14" fill="#6B7785">→ 全产品唯一必答设置</text><rect x="1215" y="176" width="310" height="128" rx="12" fill="#E8F1FE" stroke="#1F6FEB" stroke-width="2"/><path d="M1227 176 H1513 a12 12 0 0 1 12 12 V182 H1215 V188 a12 12 0 0 1 12 -12 Z" fill="#0B4EA2"/><text x="1370" y="210" text-anchor="middle" font-family="Alibaba PuHuiTi 2.0, Noto Sans CJK SC, sans-serif" font-size="19" font-weight="700" fill="#0B4EA2">第 4 屏 · 讲清原理</text><text x="1370" y="236" text-anchor="middle" font-family="Alibaba PuHuiTi 2.0, Noto Sans CJK SC, sans-serif" font-size="14" fill="#6B7785">30 秒动画讲间隔重复</text><text x="1370" y="259" text-anchor="middle" font-family="Alibaba PuHuiTi 2.0, Noto Sans CJK SC, sans-serif" font-size="14" fill="#6B7785">「今天只给 12 张</text><text x="1370" y="282" text-anchor="middle" font-family="Alibaba PuHuiTi 2.0, Noto Sans CJK SC, sans-serif" font-size="14" fill="#6B7785">　这不是少，是刚刚好」</text><path d="M385 240 L455 240" fill="none" stroke="#8494A8" stroke-width="2.5"/><path d="M455 240 L446.0 245.2 L446.0 234.8 Z" fill="#8494A8"/><path d="M765 240 L835 240" fill="none" stroke="#8494A8" stroke-width="2.5"/><path d="M835 240 L826.0 245.2 L826.0 234.8 Z" fill="#8494A8"/><path d="M1145 240 L1215 240" fill="none" stroke="#8494A8" stroke-width="2.5"/><path d="M1215 240 L1206.0 245.2 L1206.0 234.8 Z" fill="#8494A8"/><rect x="1560" y="176" width="210" height="128" rx="12" fill="#E2F5EE" stroke="#12805C" stroke-width="2"/><path d="M1572 176 H1758 a12 12 0 0 1 12 12 V182 H1560 V188 a12 12 0 0 1 12 -12 Z" fill="#0B5A41"/><text x="1665" y="210" text-anchor="middle" font-family="Alibaba PuHuiTi 2.0, Noto Sans CJK SC, sans-serif" font-size="21" font-weight="700" fill="#0B5A41">开始复习</text><text x="1665" y="236" text-anchor="middle" font-family="Alibaba PuHuiTi 2.0, Noto Sans CJK SC, sans-serif" font-size="14" fill="#6B7785">已有卡 · 立即可刷</text><path d="M1525 240 L1558 240" fill="none" stroke="#12805C" stroke-width="3"/><path d="M1558 240 L1549.0 245.2 L1549.0 234.8 Z" fill="#12805C"/><rect x="60" y="336" width="1690" height="45" rx="10" fill="#FFFBF2" stroke="#D97706" stroke-width="1.5"/><rect x="60" y="336" width="5" height="45" rx="2.5" fill="#D97706"/><text x="78" y="362" font-family="Alibaba PuHuiTi 2.0, Noto Sans CJK SC, sans-serif" font-size="15" fill="#9A5206">验收标准：从点击应用图标到完成第一张卡的复习 ≤ 120 秒；全程禁止出现「牌组 / 笔记类型 / 字段 / 模板 / 间隔 / 难度 / 学习步骤 / leech / FSRS」等术语。</text><rect x="60" y="408" width="830" height="792" rx="16" fill="#F8FAFC" stroke="#DDE5EE" stroke-width="1.5"/><rect x="930" y="408" width="810" height="792" rx="16" fill="#F8FAFC" stroke="#DDE5EE" stroke-width="1.5"/><rect x="86" y="420" width="6" height="22" rx="3" fill="#0B4EA2"/><text x="102" y="436" font-family="Alibaba PuHuiTi 2.0, Noto Sans CJK SC, sans-serif" font-size="19" font-weight="700" fill="#0B4EA2">B · 复习会话主循环</text><rect x="165" y="452" width="620" height="64" rx="12" fill="#E8F1FE" stroke="#1F6FEB" stroke-width="2"/><path d="M177 452 H773 a12 12 0 0 1 12 12 V458 H165 V464 a12 12 0 0 1 12 -12 Z" fill="#0B4EA2"/><text x="475" y="486" text-anchor="middle" font-family="Alibaba PuHuiTi 2.0, Noto Sans CJK SC, sans-serif" font-size="19" font-weight="700" fill="#0B4EA2">进入复习页</text><text x="475" y="512" text-anchor="middle" font-family="Alibaba PuHuiTi 2.0, Noto Sans CJK SC, sans-serif" font-size="14" fill="#6B7785">加载今日队列：到期卡优先，新卡补足至每日上限</text><rect x="165" y="540" width="620" height="56" rx="12" fill="#E8F1FE" stroke="#1F6FEB" stroke-width="2"/><path d="M177 540 H773 a12 12 0 0 1 12 12 V546 H165 V552 a12 12 0 0 1 12 -12 Z" fill="#0B4EA2"/><text x="475" y="574" text-anchor="middle" font-family="Alibaba PuHuiTi 2.0, Noto Sans CJK SC, sans-serif" font-size="18" font-weight="700" fill="#0B4EA2">展示正面</text><rect x="165" y="620" width="620" height="72" rx="12" fill="#E8F1FE" stroke="#1F6FEB" stroke-width="2"/><path d="M177 620 H773 a12 12 0 0 1 12 12 V626 H165 V632 a12 12 0 0 1 12 -12 Z" fill="#0B4EA2"/><text x="475" y="654" text-anchor="middle" font-family="Alibaba PuHuiTi 2.0, Noto Sans CJK SC, sans-serif" font-size="19" font-weight="700" fill="#0B4EA2">上滑翻卡 → 展示背面</text><text x="475" y="680" text-anchor="middle" font-family="Alibaba PuHuiTi 2.0, Noto Sans CJK SC, sans-serif" font-size="14" fill="#6B7785">四档评分：再来一次 / 有点难 / 记得 / 太简单</text><rect x="165" y="716" width="620" height="56" rx="12" fill="#E8F1FE" stroke="#1F6FEB" stroke-width="2"/><path d="M177 716 H773 a12 12 0 0 1 12 12 V722 H165 V728 a12 12 0 0 1 12 -12 Z" fill="#0B4EA2"/><text x="475" y="750" text-anchor="middle" font-family="Alibaba PuHuiTi 2.0, Noto Sans CJK SC, sans-serif" font-size="18" font-weight="700" fill="#0B4EA2">用户评分（rating 1-4）</text><rect x="165" y="795" width="620" height="72" rx="12" fill="#E8F1FE" stroke="#1F6FEB" stroke-width="2"/><path d="M177 795 H773 a12 12 0 0 1 12 12 V801 H165 V807 a12 12 0 0 1 12 -12 Z" fill="#0B4EA2"/><text x="475" y="829" text-anchor="middle" font-family="Alibaba PuHuiTi 2.0, Noto Sans CJK SC, sans-serif" font-size="19" font-weight="700" fill="#0B4EA2">写入复习日志 revlog</text><text x="475" y="855" text-anchor="middle" font-family="Alibaba PuHuiTi 2.0, Noto Sans CJK SC, sans-serif" font-size="14" fill="#6B7785">FSRS 计算新 Stability / Difficulty / 间隔</text><rect x="165" y="890" width="620" height="64" rx="12" fill="#E8F1FE" stroke="#1F6FEB" stroke-width="2"/><path d="M177 890 H773 a12 12 0 0 1 12 12 V896 H165 V902 a12 12 0 0 1 12 -12 Z" fill="#0B4EA2"/><text x="475" y="924" text-anchor="middle" font-family="Alibaba PuHuiTi 2.0, Noto Sans CJK SC, sans-serif" font-size="19" font-weight="700" fill="#0B4EA2">更新到期时间 · 即时落盘</text><text x="475" y="950" text-anchor="middle" font-family="Alibaba PuHuiTi 2.0, Noto Sans CJK SC, sans-serif" font-size="14" fill="#6B7785">单条事务写入，不做批量缓存</text><path d="M475 954 L643 1000 L475 1046 L307 1000 Z" fill="#FFFFFF" stroke="#1F6FEB" stroke-width="2"/><text x="475" y="1006" text-anchor="middle" font-family="Alibaba PuHuiTi 2.0, Noto Sans CJK SC, sans-serif" font-size="17" font-weight="700" fill="#0B4EA2">队列还有卡？</text><rect x="165" y="1090" width="620" height="60" rx="12" fill="#E2F5EE" stroke="#12805C" stroke-width="2"/><path d="M177 1090 H773 a12 12 0 0 1 12 12 V1096 H165 V1102 a12 12 0 0 1 12 -12 Z" fill="#0B5A41"/><text x="475" y="1124" text-anchor="middle" font-family="Alibaba PuHuiTi 2.0, Noto Sans CJK SC, sans-serif" font-size="18" font-weight="700" fill="#0B5A41">复习结算页</text><text x="475" y="1150" text-anchor="middle" font-family="Alibaba PuHuiTi 2.0, Noto Sans CJK SC, sans-serif" font-size="14" fill="#6B7785">正向反馈 · 不展示错误率</text><path d="M475 516 L475 540" fill="none" stroke="#8494A8" stroke-width="2.5"/><path d="M475 540 L469.8 531.0 L480.2 531.0 Z" fill="#8494A8"/><path d="M475 596 L475 620" fill="none" stroke="#8494A8" stroke-width="2.5"/><path d="M475 620 L469.8 611.0 L480.2 611.0 Z" fill="#8494A8"/><rect x="438.0" y="596.0" width="74.0" height="21" rx="6" fill="#FFFFFF"/><text x="475.0" y="610.0" text-anchor="middle" font-family="Alibaba PuHuiTi 2.0, Noto Sans CJK SC, sans-serif" font-size="12" fill="#8494A8">上滑 / 点击</text><path d="M475 692 L475 716" fill="none" stroke="#8494A8" stroke-width="2.5"/><path d="M475 716 L469.8 707.0 L480.2 707.0 Z" fill="#8494A8"/><path d="M475 772 L475 795" fill="none" stroke="#8494A8" stroke-width="2.5"/><path d="M475 795 L469.8 786.0 L480.2 786.0 Z" fill="#8494A8"/><path d="M475 867 L475 890" fill="none" stroke="#8494A8" stroke-width="2.5"/><path d="M475 890 L469.8 881.0 L480.2 881.0 Z" fill="#8494A8"/><path d="M475 954 L475 954" fill="none" stroke="#8494A8" stroke-width="2.5"/><path d="M475 954 L475.0 954.0 L475.0 954.0 Z" fill="#8494A8"/><path d="M475 1046 L475 1090" fill="none" stroke="#12805C" stroke-width="2.5"/><path d="M475 1090 L469.8 1081.0 L480.2 1081.0 Z" fill="#12805C"/><rect x="445.0" y="1056.0" width="60.0" height="21" rx="6" fill="#FFFFFF"/><text x="475.0" y="1070.0" text-anchor="middle" font-family="Alibaba PuHuiTi 2.0, Noto Sans CJK SC, sans-serif" font-size="12" fill="#12805C">否 · 完成</text><path d="M307 1000 H122 V568 H165" fill="none" stroke="#1F6FEB" stroke-width="2.5"/><path d="M165 568 l-10 -5 l0 10 Z" fill="#1F6FEB"/><text x="130" y="990" font-family="Alibaba PuHuiTi 2.0, Noto Sans CJK SC, sans-serif" font-size="13" fill="#1F6FEB">是 · 下一张</text><path d="M165 730 H800" fill="none" stroke="#D6336C" stroke-width="2" stroke-dasharray="5 4"/><rect x="800" y="712" width="66" height="30" rx="8" fill="#FDECF2" stroke="#D6336C" stroke-width="1.5"/><text x="833" y="732" text-anchor="middle" font-family="Alibaba PuHuiTi 2.0, Noto Sans CJK SC, sans-serif" font-size="14" fill="#D6336C">撤销</text><path d="M833 712 V660 H755" fill="none" stroke="#D6336C" stroke-width="2" stroke-dasharray="5 4"/><path d="M755 660 l-10 0 l5 -8 Z" fill="#D6336C"/><text x="690" y="702" font-family="Alibaba PuHuiTi 2.0, Noto Sans CJK SC, sans-serif" font-size="12" fill="#D6336C">回滚 S/D/due</text><rect x="956" y="420" width="6" height="22" rx="3" fill="#5A2FD6"/><text x="972" y="436" font-family="Alibaba PuHuiTi 2.0, Noto Sans CJK SC, sans-serif" font-size="19" font-weight="700" fill="#5A2FD6">C · 制卡与 AI 草稿流程</text><rect x="995" y="452" width="680" height="58" rx="12" fill="#F0EBFF" stroke="#7C4DFF" stroke-width="2"/><path d="M1007 452 H1663 a12 12 0 0 1 12 12 V458 H995 V464 a12 12 0 0 1 12 -12 Z" fill="#5A2FD6"/><text x="1335" y="486" text-anchor="middle" font-family="Alibaba PuHuiTi 2.0, Noto Sans CJK SC, sans-serif" font-size="18" font-weight="700" fill="#5A2FD6">输入内容</text><text x="1335" y="512" text-anchor="middle" font-family="Alibaba PuHuiTi 2.0, Noto Sans CJK SC, sans-serif" font-size="14" fill="#6B7785">文字 / 截图 / 照片 / 文档</text><rect x="995" y="538" width="680" height="62" rx="12" fill="#FEF3E2" stroke="#D97706" stroke-width="2"/><path d="M1007 538 H1663 a12 12 0 0 1 12 12 V544 H995 V550 a12 12 0 0 1 12 -12 Z" fill="#9A5206"/><text x="1335" y="572" text-anchor="middle" font-family="Alibaba PuHuiTi 2.0, Noto Sans CJK SC, sans-serif" font-size="18" font-weight="700" fill="#9A5206">AI 生成卡片草稿</text><text x="1335" y="598" text-anchor="middle" font-family="Alibaba PuHuiTi 2.0, Noto Sans CJK SC, sans-serif" font-size="14" fill="#6B7785">端侧优先 · 提取式（不编造） · 强制一卡一知识点</text><rect x="995" y="628" width="680" height="70" rx="12" fill="#FDECF2" stroke="#D6336C" stroke-width="2"/><path d="M1007 628 H1663 a12 12 0 0 1 12 12 V634 H995 V640 a12 12 0 0 1 12 -12 Z" fill="#A01849"/><text x="1335" y="662" text-anchor="middle" font-family="Alibaba PuHuiTi 2.0, Noto Sans CJK SC, sans-serif" font-size="18" font-weight="700" fill="#A01849">逐张确认 / 编辑 / 删除</text><text x="1335" y="688" text-anchor="middle" font-family="Alibaba PuHuiTi 2.0, Noto Sans CJK SC, sans-serif" font-size="14" fill="#6B7785">草稿制：不确认不入库，禁止静默写入复习队列</text><rect x="995" y="726" width="680" height="58" rx="12" fill="#E2F5EE" stroke="#12805C" stroke-width="2"/><path d="M1007 726 H1663 a12 12 0 0 1 12 12 V732 H995 V738 a12 12 0 0 1 12 -12 Z" fill="#0B5A41"/><text x="1335" y="760" text-anchor="middle" font-family="Alibaba PuHuiTi 2.0, Noto Sans CJK SC, sans-serif" font-size="18" font-weight="700" fill="#0B5A41">入库 · 可立即开刷</text><text x="1335" y="786" text-anchor="middle" font-family="Alibaba PuHuiTi 2.0, Noto Sans CJK SC, sans-serif" font-size="14" fill="#6B7785">无需先建牌组</text><path d="M1335 510 L1335 538" fill="none" stroke="#8494A8" stroke-width="2.5"/><path d="M1335 538 L1329.8 529.0 L1340.2 529.0 Z" fill="#8494A8"/><path d="M1335 600 L1335 628" fill="none" stroke="#D6336C" stroke-width="2.5"/><path d="M1335 628 L1329.8 619.0 L1340.2 619.0 Z" fill="#D6336C"/><rect x="1297.0" y="602.0" width="76.0" height="21" rx="6" fill="#FFFFFF"/><text x="1335.0" y="616.0" text-anchor="middle" font-family="Alibaba PuHuiTi 2.0, Noto Sans CJK SC, sans-serif" font-size="12" fill="#D6336C">AI 质量闸门</text><path d="M1335 698 L1335 726" fill="none" stroke="#8494A8" stroke-width="2.5"/><path d="M1335 726 L1329.8 717.0 L1340.2 717.0 Z" fill="#8494A8"/><rect x="956" y="814" width="6" height="22" rx="3" fill="#12805C"/><text x="972" y="830" font-family="Alibaba PuHuiTi 2.0, Noto Sans CJK SC, sans-serif" font-size="19" font-weight="700" fill="#12805C">D · 回归模式（断卡保护）</text><path d="M1335 878 L1485 922 L1335 966 L1185 922 Z" fill="#FFFFFF" stroke="#12805C" stroke-width="2"/><text x="1335" y="928" text-anchor="middle" font-family="Alibaba PuHuiTi 2.0, Noto Sans CJK SC, sans-serif" font-size="17" font-weight="700" fill="#0B5A41">断卡 ≥ 3 天？</text><path d="M1335 878 V788" fill="none" stroke="#8494A8" stroke-width="2.5"/><path d="M1335 788 l-5 10 l10 0 Z" fill="#8494A8"/><rect x="1510" y="894" width="200" height="56" rx="12" fill="#F2F5F8" stroke="#5A6875" stroke-width="2"/><path d="M1522 894 H1698 a12 12 0 0 1 12 12 V900 H1510 V906 a12 12 0 0 1 12 -12 Z" fill="#5A6875"/><text x="1610" y="928" text-anchor="middle" font-family="Alibaba PuHuiTi 2.0, Noto Sans CJK SC, sans-serif" font-size="16" font-weight="700" fill="#5A6875">常规今日队列</text><path d="M1485 922 H1508" fill="none" stroke="#5A6875" stroke-width="2.5"/><path d="M1508 922 l-10 -5 l0 10 Z" fill="#5A6875"/><text x="1492" y="910" font-family="Alibaba PuHuiTi 2.0, Noto Sans CJK SC, sans-serif" font-size="13" fill="#5A6875">否</text><rect x="995" y="1000" width="680" height="58" rx="12" fill="#E3F5F2" stroke="#0E9384" stroke-width="2"/><path d="M1007 1000 H1663 a12 12 0 0 1 12 12 V1006 H995 V1012 a12 12 0 0 1 12 -12 Z" fill="#076B60"/><text x="1335" y="1034" text-anchor="middle" font-family="Alibaba PuHuiTi 2.0, Noto Sans CJK SC, sans-serif" font-size="18" font-weight="700" fill="#076B60">展示回归引导页</text><text x="1335" y="1060" text-anchor="middle" font-family="Alibaba PuHuiTi 2.0, Noto Sans CJK SC, sans-serif" font-size="14" fill="#6B7785">文案温和 · 不提积压数字 ·「欢迎回来，先来 15 张热热身？」</text><path d="M1335 966 L1335 1000" fill="none" stroke="#12805C" stroke-width="2.5"/><path d="M1335 1000 L1329.8 991.0 L1340.2 991.0 Z" fill="#12805C"/><rect x="1322.0" y="971.0" width="26.0" height="21" rx="6" fill="#FFFFFF"/><text x="1335.0" y="985.0" text-anchor="middle" font-family="Alibaba PuHuiTi 2.0, Noto Sans CJK SC, sans-serif" font-size="12" fill="#12805C">是</text><rect x="995" y="1086" width="680" height="76" rx="12" fill="#E2F5EE" stroke="#12805C" stroke-width="2"/><path d="M1007 1086 H1663 a12 12 0 0 1 12 12 V1092 H995 V1098 a12 12 0 0 1 12 -12 Z" fill="#0B5A41"/><text x="1335" y="1120" text-anchor="middle" font-family="Alibaba PuHuiTi 2.0, Noto Sans CJK SC, sans-serif" font-size="18" font-weight="700" fill="#0B5A41">分 3 天平滑消化</text><text x="1335" y="1146" text-anchor="middle" font-family="Alibaba PuHuiTi 2.0, Noto Sans CJK SC, sans-serif" font-size="14" fill="#6B7785">第 1 天 min(积压×33%, 常规×1.5)　第 2 天 min(剩余×50%, 常规×1.5)</text><text x="1335" y="1169" text-anchor="middle" font-family="Alibaba PuHuiTi 2.0, Noto Sans CJK SC, sans-serif" font-size="14" fill="#6B7785">第 3 天 剩余全部 → 回归常规节奏</text><path d="M1335 1058 L1335 1086" fill="none" stroke="#12805C" stroke-width="2.5"/><path d="M1335 1086 L1329.8 1077.0 L1340.2 1077.0 Z" fill="#12805C"/><rect x="975" y="1180" width="700" height="44" rx="10" fill="#F0FAF6" stroke="#12805C" stroke-width="1.5"/><rect x="975" y="1180" width="5" height="44" rx="2.5" fill="#12805C"/><text x="993" y="1206" font-family="Alibaba PuHuiTi 2.0, Noto Sans CJK SC, sans-serif" font-size="14" fill="#0B5A41">单次会话 &gt; 25 分钟 → 主动提示「今天先到这里」，剩余顺延。</text><rect x="60" y="1232" width="830" height="45" rx="10" fill="#FFF5F8" stroke="#D6336C" stroke-width="1.5"/><rect x="60" y="1232" width="5" height="45" rx="2.5" fill="#D6336C"/><text x="78" y="1258" font-family="Alibaba PuHuiTi 2.0, Noto Sans CJK SC, sans-serif" font-size="15" fill="#A01849">红线一：评分必须即时落盘（单条事务），禁止批量缓存 —— 复习中崩溃不得导致计数膨胀或数据丢失。</text><rect x="930" y="1232" width="810" height="45" rx="10" fill="#FFF5F8" stroke="#D6336C" stroke-width="1.5"/><rect x="930" y="1232" width="5" height="45" rx="2.5" fill="#D6336C"/><text x="948" y="1258" font-family="Alibaba PuHuiTi 2.0, Noto Sans CJK SC, sans-serif" font-size="15" fill="#A01849">红线二：AI 生成卡片必须逐张确认后入库。错卡混入复习流会瞬间摧毁信任，且极难挽回。</text></svg>